<?xml version="1.0" encoding="utf-8" ?>
<svg baseProfile="full" height="200mm" version="1.1" viewBox="0,0,200,200" width="200mm" xmlns="http://www.w3.org/2000/svg" xmlns:ev="http://www.w3.org/2001/xml-events" xmlns:xlink="http://www.w3.org/1999/xlink"><defs /><rect fill="#1a1a1a" height="200" width="200" x="0" y="0" /><text alignment-baseline="middle" fill="#e1ed5e" style="dominant-baseline: central; font-size:9.0px; font-family:Arial;" text-anchor="middle" x="100.0" y="100.0">2022</text><line stroke="#e1ed5e" stroke-width="0.3" x1="100.0" x2="100.0" y1="15.0" y2="10.0" /><path d="M 100.0 14.0 a86.0,86.0 0 0,1 42.46469731375804,11.215312516191453" fill="none" id="id1" stroke="none" /><text fill="#e1ed5e" style="font-size:6.75px; font-family:Arial;" text-anchor="middle"><textPath startOffset="22.20632615414155" xlink:href="#id1">January</textPath></text><line stroke="#e1ed5e" stroke-width="0.3" x1="143.23703022742887" x2="145.7803849466894" y1="26.81831364943548" y2="22.513508569990506" /><path d="M 143.74570117128098 25.957352633546492 a86.0,86.0 0 0,1 28.547481713284135,27.462654790039103" fill="none" id="id2" stroke="none" /><text fill="#e1ed5e" style="font-size:6.75px; font-family:Arial;" text-anchor="middle"><textPath startOffset="19.985693538727396" xlink:href="#id2">February</textPath></text><line stroke="#e1ed5e" stroke-width="0.3" x1="172.23445277983987" x2="176.4835382374775" y1="55.19839476539836" y2="52.563006222186495" /><path d="M 173.08426987136738 54.67131705675599 a86.0,86.0 0 0,1 12.851231095245387,41.99856678651699" fill="none" id="id3" stroke="none" /><text fill="#e1ed5e" style="font-size:6.75px; font-family:Arial;" text-anchor="middle"><textPath startOffset="22.20632615414155" xlink:href="#id3">March</textPath></text><line stroke="#e1ed5e" stroke-width="0.3" x1="184.98032266829074" x2="189.97916517819016" y1="98.17113171792111" y2="98.06355123074" /><path d="M 185.9800911702706 98.14961562048488 a86.0,86.0 0 0,1 -9.607161424134198,41.387399972396054" fill="none" id="id4" stroke="none" /><text fill="#e1ed5e" style="font-size:6.75px; font-family:Arial;" text-anchor="middle"><textPath startOffset="21.466115282336823" xlink:href="#id4">April</textPath></text><line stroke="#e1ed5e" stroke-width="0.3" x1="174.80103733775053" x2="179.2010983576182" y1="140.37084112569926" y2="142.7455964860345" /><path d="M 175.68104954172406 140.8457921977663 a86.0,86.0 0 0,1 -30.038265399797805,32.042727171017184" fill="none" id="id5" stroke="none" /><text fill="#e1ed5e" style="font-size:6.75px; font-family:Arial;" text-anchor="middle"><textPath startOffset="22.206326154141568" xlink:href="#id5">May</textPath></text><path d="M 111.45004920935366 117.60387380957326 l 5.297192197434116 8.144166132710454 a30.71533258173619,30.71533258173619 0 0,0 -0.44569146637313595,0.2844613810012208 l -5.15621892901405 -8.234141942535484" fill="#ff0c01" stroke="none" /><line stroke="#e1ed5e" stroke-width="0.3" x1="143.8653032363475" x2="146.44561519142675" y1="172.8068346515853" y2="177.08958963109032" /><path d="M 144.38136562736335 173.6633856474863 a86.0,86.0 0 0,1 -40.68145358897372,12.25698825130547" fill="none" id="id6" stroke="none" /><text fill="#e1ed5e" style="font-size:6.75px; font-family:Arial;" text-anchor="middle"><textPath startOffset="21.466115282336833" xlink:href="#id6">June</textPath></text><path d="M 109.89434966115114 118.52300852407294 l 4.252246583979604 7.960543382732089 a30.02506797532993,30.02506797532993 0 0,0 -0.4579667821313595,0.23958657556430535 l -4.114588899321749 -8.03255937724111" fill="#ff0000" stroke="none" /><line stroke="#e1ed5e" stroke-width="0.3" x1="102.19456741930631" x2="102.32365962044197" y1="184.97166512339345" y2="189.96999836594603" /><path d="M 102.22038585953345 185.97133177190398 a86.0,86.0 0 0,1 -42.740103519485714,-10.115201625700543" fill="none" id="id7" stroke="none" /><text fill="#e1ed5e" style="font-size:6.75px; font-family:Arial;" text-anchor="middle"><textPath startOffset="22.20632615414155" xlink:href="#id7">July</textPath></text><path d="M 91.07499286063937 119.00905698771935 l -5.710489348136572 12.162569256417285 a34.43643477684196,34.43643477684196 0 0,0 -0.5343998977623194,-0.2565444263542225 l 5.919001913899134 -12.0624705535635" fill="#ff4806" stroke="none" /><line stroke="#e1ed5e" stroke-width="0.3" x1="58.666819895761336" x2="56.23545636021788" y1="174.27360380694188" y2="178.64263932499728" /><path d="M 58.180547188652646 175.14741091055294 a86.0,86.0 0 0,1 -31.652253787137756,-30.449443065178592" fill="none" id="id8" stroke="none" /><text fill="#e1ed5e" style="font-size:6.75px; font-family:Arial;" text-anchor="middle"><textPath startOffset="22.20632615414155" xlink:href="#id8">August</textPath></text><path d="M 89.4739219176387 118.17145234162733 l -6.7220386469141316 11.604436519966969 a34.41076994495656,34.41076994495656 0 0,0 -0.5099874852153045,-0.30130959552142605 l 6.920794003157818 -11.487008352151793" fill="#ff4806" stroke="none" /><path d="M 88.8546689885994 117.79835938074946 l -8.875570460577153 14.17370131088323 a37.72332382784005,37.72332382784005 0 0,0 -0.547380155124751,-0.34936391339628897 l 9.118232417748827 -14.018822968663136" fill="#ff7c0b" stroke="none" /><path d="M 82.6465618267979 111.8261652097733 l -12.72593138266919 8.672573439198423 a36.40009284435307,36.40009284435307 0 0,0 -0.34839550592743146,-0.520804010438517 l 12.873329994007351 -8.452232514554083" fill="#ff6809" stroke="none" /><path d="M 82.24976979558568 111.22182372390057 l -12.650400201532637 7.997674366109976 a35.966476556800856,35.966476556800856 0 0,0 -0.3263278843154318,-0.5261444545768783 l 12.786192725516026 -7.778733580167834" fill="#ff6108" stroke="none" /><line stroke="#e1ed5e" stroke-width="0.3" x1="26.63291911575756" x2="22.317208475507996" y1="142.92168965132927" y2="145.44649492493687" /><path d="M 25.769776987707644 143.4266507060508 a86.0,86.0 0 0,1 -11.730757126820373,-40.83630448921669" fill="none" id="id9" stroke="none" /><text fill="#e1ed5e" style="font-size:6.75px; font-family:Arial;" text-anchor="middle"><textPath startOffset="21.46611528233685" xlink:href="#id9">September</textPath></text><path d="M 81.69416730710424 110.29060199501025 l -11.719128641283444 6.587894175531012 a34.4438954837854,34.4438954837854 0 0,0 -0.28608704394088297,-0.5193310843519311 l 11.830792094675843 -6.385192572781259" fill="#ff4906" stroke="none" /><path d="M 80.32549172779594 107.34259656027581 l -15.202808834913673 5.6737424037923665 a37.22703760196299,37.22703760196299 0 0,0 -0.21888742754707996,-0.6022841922001448 l 15.298220523465979 -5.411210414586105" fill="#ff740a" stroke="none" /><path d="M 79.67330655649465 105.27499134158121 l -12.710995683988267 3.29863744746629 a34.13203793354997,34.13203793354997 0 0,0 -0.14268603574368946,-0.5699597851394356 l 12.765893034027018 -3.0793498229294625" fill="#ff4406" stroke="none" /><path d="M 79.23777060512086 103.15116336523772 l -41.61553068927635 6.316149062745539 a63.092114861728234,63.092114861728234 0 0,0 -0.15372228239381247,-1.075133285028672 l 41.71808702268676 -5.598870305736466" fill="#31ff2f" stroke="none" /><line stroke="#e1ed5e" stroke-width="0.3" x1="15.007084014347285" x2="10.007500721073583" y1="101.09737516637583" y2="101.16192664675087" /><path d="M 14.007167355692545 101.11028546245083 a86.0,86.0 0 0,1 10.666146001902534,-42.60595125391555" fill="none" id="id10" stroke="none" /><text fill="#e1ed5e" style="font-size:6.75px; font-family:Arial;" text-anchor="middle"><textPath startOffset="22.20632615414155" xlink:href="#id10">October</textPath></text><path d="M 79.00486145842228 99.54816195383935 l -32.54919771188235 -0.7004938723842491 a53.556734531467605,53.556734531467605 0 0,0 0.027768670930310678,-0.9215069996501858 l 32.5323173464964 1.2606710194594293" fill="#a2ff22" stroke="none" /><path d="M 79.03285615573316 98.82574320788736 l -62.90143153280056 -3.522770376337934 a84.0,84.0 0 0,0 0.09327763598234728,-1.442963742987953 l 62.831473305813795 4.604993183578899" fill="#4dd2ff" stroke="none" /><path d="M 79.54389044137918 95.25157060432595 l -35.60395626478458 -8.264664013727282 a57.550600172425234,57.550600172425234 0 0,0 0.23230491523456942,-0.963053848926452 l 35.45641854928919 8.876303094313132" fill="#71ff27" stroke="none" /><line stroke="#e1ed5e" stroke-width="0.3" x1="26.266209847984243" x2="21.928928074336255" y1="57.711370442889674" y2="55.22380399835377" /><path d="M 25.398753493254645 57.213857153982495 a86.0,86.0 0 0,1 29.58750427330803,-30.492523968695096" fill="none" id="id11" stroke="none" /><text fill="#e1ed5e" style="font-size:6.75px; font-family:Arial;" text-anchor="middle"><textPath startOffset="21.46611528233685" xlink:href="#id11">November</textPath></text><path d="M 82.7489923806493 88.02491185347247 l -33.077356219839984 -22.961224360156116 a61.26573380197626,61.26573380197626 0 0,0 0.6088278801394004,-0.8611438598128818 l 32.67721571989671 23.527194720300784" fill="#45ff2d" stroke="none" /><path d="M 86.10567301691215 84.25364557470407 l -19.009150023819537 -21.542951591899552 a49.73058558259831,49.73058558259831 0 0,0 0.6467491104540455,-0.5608544554141813 l 18.635507114718717 21.866971040733414" fill="#d4ff1c" stroke="none" /><line stroke="#e1ed5e" stroke-width="0.3" x1="56.76296977257108" x2="54.21961505331056" y1="26.818313649435495" y2="22.513508569990535" /><path d="M 56.25429882871898 25.957352633546506 a86.0,86.0 0 0,1 42.26535254187918,-11.944610805530505" fill="none" id="id12" stroke="none" /><text fill="#e1ed5e" style="font-size:6.75px; font-family:Arial;" text-anchor="middle"><textPath startOffset="22.20632615414155" xlink:href="#id12">December</textPath></text></svg>