<?xml version="1.0" encoding="utf-8" ?>
<svg baseProfile="full" height="200mm" version="1.1" viewBox="0,0,200,200" width="200mm" xmlns="http://www.w3.org/2000/svg" xmlns:ev="http://www.w3.org/2001/xml-events" xmlns:xlink="http://www.w3.org/1999/xlink"><defs /><rect fill="#1a1a1a" height="200" width="200" x="0" y="0" /><text alignment-baseline="middle" fill="#e1ed5e" style="dominant-baseline: central; font-size:9.0px; font-family:Arial;" text-anchor="middle" x="100.0" y="100.0">2023</text><line stroke="#e1ed5e" stroke-width="0.3" x1="100.0" x2="100.0" y1="15.0" y2="10.0" /><path d="M 100.0 14.0 a86.0,86.0 0 0,1 42.46469731375804,11.215312516191453" fill="none" id="id13" stroke="none" /><text fill="#e1ed5e" style="font-size:6.75px; font-family:Arial;" text-anchor="middle"><textPath startOffset="22.20632615414155" xlink:href="#id13">January</textPath></text><line stroke="#e1ed5e" stroke-width="0.3" x1="143.23703022742887" x2="145.7803849466894" y1="26.81831364943548" y2="22.513508569990506" /><path d="M 143.74570117128098 25.957352633546492 a86.0,86.0 0 0,1 28.547481713284135,27.462654790039103" fill="none" id="id14" stroke="none" /><text fill="#e1ed5e" style="font-size:6.75px; font-family:Arial;" text-anchor="middle"><textPath startOffset="19.985693538727396" xlink:href="#id14">February</textPath></text><path d="M 115.4437574822437 85.77008943001954 l 6.916065776785732 -6.372477527759362 a30.404277519864294,30.404277519864294 0 0,0 0.35132339488904657,0.38794006745384507 l -7.024732812290814 6.252484673035968" fill="#ff4a06" stroke="none" /><path d="M 117.2510076193507 88.02491185347247 l 7.707874492899667 -5.350555660952101 a30.38295129899116,30.38295129899116 0 0,0 0.29453454977395127,0.4321931081387434 l -7.798833508342352 5.2170845295429515" fill="#ff4906" stroke="none" /><line stroke="#e1ed5e" stroke-width="0.3" x1="172.23445277983987" x2="176.4835382374775" y1="55.19839476539836" y2="52.563006222186495" /><path d="M 173.08426987136738 54.67131705675599 a86.0,86.0 0 0,1 12.851231095245387,41.99856678651699" fill="none" id="id15" stroke="none" /><text fill="#e1ed5e" style="font-size:6.75px; font-family:Arial;" text-anchor="middle"><textPath startOffset="22.20632615414155" xlink:href="#id15">March</textPath></text><path d="M 118.56541770881063 90.18545643968196 l 12.875397294942218 -6.806534040310962 a35.56381684671011,35.56381684671011 0 0,0 0.2814462324164075,0.5436645384919541 l -12.99065296051874 6.583896779558663" fill="#ff940d" stroke="none" /><path d="M 119.61058180528143 92.48833698450437 l 9.339909438832448 -3.5775711805175305 a31.001646058387642,31.001646058387642 0 0,0 0.18659361003223207,0.49997810638007917 l -9.400107637366306 3.4162699371081184" fill="#ff5207" stroke="none" /><path d="M 120.37134235888165 94.90015583598534 l 4.670440780073931 -1.1692170175153664 a25.814570127667174,25.814570127667174 0 0,0 0.1042013724853832,0.43198196101077024 l -4.689874952820134 1.0886498248451901" fill="#ff0400" stroke="none" /><path d="M 120.83666639777658 97.38593545837742 l 7.103250455161145 -0.8911384763103256 a28.15893112222123,28.15893112222123 0 0,0 0.05619670776802598,0.48145907340536737 l -7.117537515932761 0.7687356645801056" fill="#ff2803" stroke="none" /><line stroke="#e1ed5e" stroke-width="0.3" x1="184.98032266829074" x2="189.97916517819016" y1="98.17113171792111" y2="98.06355123074" /><path d="M 185.9800911702706 98.14961562048488 a86.0,86.0 0 0,1 -9.607161424134198,41.387399972396054" fill="none" id="id16" stroke="none" /><text fill="#e1ed5e" style="font-size:6.75px; font-family:Arial;" text-anchor="middle"><textPath startOffset="21.466115282336823" xlink:href="#id16">April</textPath></text><path d="M 120.99980553446 99.90962569577887 l 62.99941660337998 -0.27112291266339017 a84.0,84.0 0 0,0 -0.006222810841987947,1.4459620871852612 l -62.994749495248485 -0.8133486527255557" fill="#4dd2ff" stroke="none" /><path d="M 120.89721153311464 102.0752229133903 l 7.778618992579224 0.7724651847617786 a28.816880189268815,28.816880189268815 0 0,0 -0.05326690318415942,0.4931853681823095 l -7.764169787894012 -0.9062468748288796" fill="#ff3204" stroke="none" /><line stroke="#e1ed5e" stroke-width="0.3" x1="174.80103733775053" x2="179.2010983576182" y1="140.37084112569926" y2="142.7455964860345" /><path d="M 175.68104954172406 140.8457921977663 a86.0,86.0 0 0,1 -30.038265399797805,32.042727171017184" fill="none" id="id17" stroke="none" /><text fill="#e1ed5e" style="font-size:6.75px; font-family:Arial;" text-anchor="middle"><textPath startOffset="22.206326154141568" xlink:href="#id17">May</textPath></text><path d="M 118.30583269289576 110.29060199501023 l 35.133029359642286 19.749990513100073 a61.303745201321306,61.303745201321306 0 0,0 -0.5250169620400302,0.9154113271282373 l -34.787860401449876 -20.351821686086623" fill="#31ff2f" stroke="none" /><line stroke="#e1ed5e" stroke-width="0.3" x1="143.8653032363475" x2="146.44561519142675" y1="172.8068346515853" y2="177.08958963109032" /><path d="M 144.38136562736335 173.6633856474863 a86.0,86.0 0 0,1 -40.68145358897372,12.25698825130547" fill="none" id="id18" stroke="none" /><text fill="#e1ed5e" style="font-size:6.75px; font-family:Arial;" text-anchor="middle"><textPath startOffset="21.466115282336833" xlink:href="#id18">June</textPath></text><line stroke="#e1ed5e" stroke-width="0.3" x1="102.19456741930631" x2="102.32365962044197" y1="184.97166512339345" y2="189.96999836594603" /><path d="M 102.22038585953345 185.97133177190398 a86.0,86.0 0 0,1 -42.740103519485714,-10.115201625700543" fill="none" id="id19" stroke="none" /><text fill="#e1ed5e" style="font-size:6.75px; font-family:Arial;" text-anchor="middle"><textPath startOffset="22.20632615414155" xlink:href="#id19">July</textPath></text><line stroke="#e1ed5e" stroke-width="0.3" x1="58.666819895761336" x2="56.23545636021788" y1="174.27360380694188" y2="178.64263932499728" /><path d="M 58.180547188652646 175.14741091055294 a86.0,86.0 0 0,1 -31.652253787137756,-30.449443065178592" fill="none" id="id20" stroke="none" /><text fill="#e1ed5e" style="font-size:6.75px; font-family:Arial;" text-anchor="middle"><textPath startOffset="22.20632615414155" xlink:href="#id20">August</textPath></text><path d="M 84.4343377721795 114.09645910891817 l -3.37098519320914 3.052806506870658 a25.547875189715203,25.547875189715203 0 0,0 -0.29239074819699756,-0.3285041052123603 l 3.423034791054471 -2.994328231917431" fill="#ff0000" stroke="none" /><line stroke="#e1ed5e" stroke-width="0.3" x1="26.63291911575756" x2="22.317208475507996" y1="142.92168965132927" y2="145.44649492493687" /><path d="M 25.769776987707644 143.4266507060508 a86.0,86.0 0 0,1 -11.730757126820373,-40.83630448921669" fill="none" id="id21" stroke="none" /><text fill="#e1ed5e" style="font-size:6.75px; font-family:Arial;" text-anchor="middle"><textPath startOffset="21.46611528233685" xlink:href="#id21">September</textPath></text><path d="M 81.69416730710424 110.29060199501025 l -6.914942090235565 3.8872264410443473 a28.932651102580127,28.932651102580127 0 0,0 -0.24031128044755068,-0.4362347771422197 l 6.9808297801346315 -3.767621145504305" fill="#ff3404" stroke="none" /><path d="M 81.35079622478065 109.6543875284942 l -8.34779135820391 4.321514942434453 a30.400059146504777,30.400059146504777 0 0,0 -0.2365722906808562,-0.4667795731323683 l 8.420942318671033 -4.1771811575994" fill="#ff4a06" stroke="none" /><path d="M 81.02952815118164 109.00673069616217 l -10.596581919971765 5.031006103253647 a32.73024171948933,32.73024171948933 0 0,0 -0.23725588507973108,-0.5110280691873279 l 10.681612421891323 -4.847857966787492" fill="#ff6c09" stroke="none" /><path d="M 80.73074385275274 108.34839909993369 l -10.763907810447005 4.663459636937893 a32.73071042764039,32.73071042764039 0 0,0 -0.21952802136247085,-0.5188993949717037 l 10.842586813001782 -4.477485716300031" fill="#ff6c09" stroke="none" /><path d="M 80.45479744820244 107.68017299344265 l -10.917398566242381 4.289927894320688 a32.7300073654138,32.7300073654138 0 0,0 -0.20153224672831355,-0.526137102092422 l 10.989625092564204 -4.101367225395109" fill="#ff6c09" stroke="none" /><path d="M 80.0844068197444 106.66101706037122 l -11.121399037400678 3.7196897954696655 a32.72696076243192,32.72696076243192 0 0,0 -0.17408833894527634,-0.5357888147860648 l 11.183779627362204 -3.5277020807057977" fill="#ff6c09" stroke="none" /><path d="M 79.50377843672027 104.57218783832718 l -9.15111186840121 2.041381249841462 a30.37603785376306,30.37603785376306 0 0,0 -0.10944914780703606,-0.5113099810569873 l 9.184895054932687 -1.883557449368311" fill="#ff4906" stroke="none" /><path d="M 79.29508885075956 103.50808413554451 l -11.565525652442645 1.9595755213880997 a32.73035889652709,32.73035889652709 0 0,0 -0.08933555957496439,-0.5562926147507632 l 11.597542966378901 -1.7602036769441227" fill="#ff6c09" stroke="none" /><path d="M 79.18660465613746 102.79330883721812 l -11.61950393686273 1.5594218288127757 a32.723679805374516,32.723679805374516 0 0,0 -0.0701198191967261,-0.558923950503405 l 11.644625265306304 -1.3591801240219619" fill="#ff6c09" stroke="none" /><line stroke="#e1ed5e" stroke-width="0.3" x1="15.007084014347285" x2="10.007500721073583" y1="101.09737516637583" y2="101.16192664675087" /><path d="M 14.007167355692545 101.11028546245083 a86.0,86.0 0 0,1 10.666146001902534,-42.60595125391555" fill="none" id="id22" stroke="none" /><text fill="#e1ed5e" style="font-size:6.75px; font-family:Arial;" text-anchor="middle"><textPath startOffset="22.20632615414155" xlink:href="#id22">October</textPath></text><path d="M 79.05617556472873 98.46500227214037 l -8.602912886140157 -0.6305176866819195 a29.625987635032587,29.625987635032587 0 0,0 0.04165345606102543,-0.5082776682798421 l 8.590784946259634 0.77850927216954" fill="#ff3e05" stroke="none" /><path d="M 79.12142395522702 97.74499172005258 l -11.66416386234913 -1.2597978919566113 a32.7319993750558,32.7319993750558 0 0,0 0.06532316853787319,-0.5596490158457379 l 11.640750340807667 1.460390646127211" fill="#ff6c09" stroke="none" /><path d="M 79.21141760316559 97.0276538004421 l -11.799483185490084 -1.6870870910601123 a32.91948263547898,32.91948263547898 0 0,0 0.08503275828580771,-0.5602596339768238 l 11.768694533764974 1.8899458374290283" fill="#ff6e0a" stroke="none" /><path d="M 79.32604984820605 96.31383870115002 l -12.632478457685137 -2.252368456796074 a33.831705874475496,33.831705874475496 0 0,0 0.10715673453024856,-0.5724355606685432 l 12.591835999245026 2.46948209492719" fill="#ff7b0b" stroke="none" /><path d="M 80.2630227832202 92.82701384747504 l -13.769167097147179 -5.004112019528044 a35.650293500580304,35.650293500580304 0 0,0 0.21457302462112376,-0.5749490269885617 l 13.680989484024428 5.240384183545947" fill="#ff950d" stroke="none" /><path d="M 80.52162464483688 92.15188598940014 l -8.69818754839805 -3.5046232717408388 a30.377678332291758,30.377678332291758 0 0,0 0.1995933720287232,-0.48333118197181535 l 8.636572489483124 3.6538290241659657" fill="#ff4906" stroke="none" /><path d="M 80.803312248108 91.48605970444005 l -10.802421452830984 -4.790991679687778 a32.81718708151058,32.81718708151058 0 0,0 0.23346722446466234,-0.5144140818545521 l 10.71835191140297 4.976227770384401" fill="#ff6d0a" stroke="none" /><path d="M 81.26839172434947 90.50648371742162 l -14.635479981732878 -7.417524724267475 a37.40783189000982,37.40783189000982 0 0,0 0.29603946600247116,-0.5718540208472791 l 14.505631082570293 7.668351467375089" fill="#ffae10" stroke="none" /><path d="M 81.6062741919709 89.86733742301443 l -10.271547658366131 -5.658349355203434 a32.72696076243192,32.72696076243192 0 0,0 0.2760633820374887,-0.4910859526647416 l 10.172626635036213 5.83431881780296" fill="#ff6c09" stroke="none" /><line stroke="#e1ed5e" stroke-width="0.3" x1="26.266209847984243" x2="21.928928074336255" y1="57.711370442889674" y2="55.22380399835377" /><path d="M 25.398753493254645 57.213857153982495 a86.0,86.0 0 0,1 29.58750427330803,-30.492523968695096" fill="none" id="id23" stroke="none" /><text fill="#e1ed5e" style="font-size:6.75px; font-family:Arial;" text-anchor="middle"><textPath startOffset="21.46611528233685" xlink:href="#id23">November</textPath></text><path d="M 81.96595687620814 89.24020034530311 l -7.049252426965179 -4.205853524297393 a29.20860302651549,29.20860302651549 0 0,0 0.26132547918150395,-0.42955037686616016 l 6.9758111494974555 4.326571674370627" fill="#ff3805" stroke="none" /><path d="M 82.54541684631803 88.32363383020206 l -18.19458361570364 -12.171394683759441 a42.89031113293456,42.89031113293456 0 0,0 0.4157818098343394,-0.6101085011512908 l 17.982377340200557 12.482781208181148" fill="#fff717" stroke="none" /><path d="M 84.80347519578584 85.50635884689758 l -5.657147513826623 -5.395487920556093 a28.817583251495403,28.817583251495403 0 0,0 0.3454483589577149,-0.35601489967395206 l 5.5634348911657945 5.492067015780168" fill="#ff3204" stroke="none" /><path d="M 85.57189188830299 84.74124197986013 l -6.409469016185195 -6.778472686676497 a30.32893268458173,30.32893268458173 0 0,0 0.3824220127520834,-0.3554195829964868 l 6.291839119638255 6.8877968557476335" fill="#ff4806" stroke="none" /><line stroke="#e1ed5e" stroke-width="0.3" x1="56.76296977257108" x2="54.21961505331056" y1="26.818313649435495" y2="22.513508569990535" /><path d="M 56.25429882871898 25.957352633546506 a86.0,86.0 0 0,1 42.26535254187918,-11.944610805530505" fill="none" id="id24" stroke="none" /><text fill="#e1ed5e" style="font-size:6.75px; font-family:Arial;" text-anchor="middle"><textPath startOffset="22.20632615414155" xlink:href="#id24">December</textPath></text><path d="M 93.94186890950719 79.89281104454417 l -1.692440682236537 -5.617280987371697 a26.866702749754484,26.866702749754484 0 0,0 0.44395279388961245,-0.12960199452355803 l 1.5954976706235033 5.645581310813954" fill="#ff1402" stroke="none" /></svg>