<?xml version="1.0" encoding="utf-8" ?>
<svg baseProfile="full" height="200mm" version="1.1" viewBox="0,0,200,200" width="200mm" xmlns="http://www.w3.org/2000/svg" xmlns:ev="http://www.w3.org/2001/xml-events" xmlns:xlink="http://www.w3.org/1999/xlink"><defs /><rect fill="#1a1a1a" height="200" width="200" x="0" y="0" /><text alignment-baseline="middle" fill="#e1ed5e" style="dominant-baseline: central; font-size:9.0px; font-family:Arial;" text-anchor="middle" x="100.0" y="100.0">2024</text><line stroke="#e1ed5e" stroke-width="0.3" x1="100.0" x2="100.0" y1="15.0" y2="10.0" /><path d="M 100.0 14.0 a86.0,86.0 0 0,1 42.35913384403234,11.155469271406648" fill="none" id="id25" stroke="none" /><text fill="#e1ed5e" style="font-size:6.75px; font-family:Arial;" text-anchor="middle"><textPath startOffset="22.145653131862478" xlink:href="#id25">January</textPath></text><line stroke="#e1ed5e" stroke-width="0.3" x1="143.13028292997686" x2="145.6673583964461" y1="26.7553504044142" y2="22.446841604673864" /><path d="M 143.63769802327073 25.89364864446614 a86.0,86.0 0 0,1 29.32050498858742,28.57503671076993" fill="none" id="id26" stroke="none" /><text fill="#e1ed5e" style="font-size:6.75px; font-family:Arial;" text-anchor="middle"><textPath startOffset="20.669276256404974" xlink:href="#id26">February</textPath></text><path d="M 117.42321728460499 88.27688183743584 l 6.534197110733534 -4.3964994280533185 a28.875591349403017,28.875591349403017 0 0,0 0.27318449108754866,0.41363613822662093 l -6.608706040741807 4.283683411487639" fill="#ff1f03" stroke="none" /><line stroke="#e1ed5e" stroke-width="0.3" x1="172.87174338648825" x2="177.1583165268699" y1="56.24261187166439" y2="53.66864786411523" /><path d="M 173.72905801456457 55.72781907015455 a86.0,86.0 0 0,1 12.242430191666344,42.057860355516425" fill="none" id="id27" stroke="none" /><text fill="#e1ed5e" style="font-size:6.75px; font-family:Arial;" text-anchor="middle"><textPath startOffset="22.145653131862474" xlink:href="#id27">March</textPath></text><path d="M 119.71291397450082 92.76114493625339 l 11.104889729102535 -4.077869327276723 a32.829944807389055,32.829944807389055 0 0,0 0.18972554853768878,0.5306961260024962 l -11.173255447684166 3.8866382448933097" fill="#ff5b08" stroke="none" /><path d="M 120.86939407059847 97.66154086499901 l 14.261026861658397 -1.5979778055043048 a35.35027596305474,35.35027596305474 0 0,0 0.06239762643158606,0.6036404331619916 l -14.286356880571649 1.3529328500593818" fill="#ff800b" stroke="none" /><path d="M 120.93736805541906 98.37931529534042 l 13.270395364704108 -1.0272125290740528 a34.310092363144854,34.310092363144854 0 0,0 0.040414084624996224,0.5876119207751052 l -13.28607341049417 0.7992571841446136" fill="#ff710a" stroke="none" /><line stroke="#e1ed5e" stroke-width="0.3" x1="184.99686870605535" x2="189.99668451229388" y1="99.2704041080226" y2="99.22748670261217" /><path d="M 185.99683186730306 99.26182062694052 a86.0,86.0 0 0,1 -10.086455211305974,41.156179273409016" fill="none" id="id28" stroke="none" /><text fill="#e1ed5e" style="font-size:6.75px; font-family:Arial;" text-anchor="middle"><textPath startOffset="21.40746469413373" xlink:href="#id28">April</textPath></text><path d="M 120.99922638620191 99.81974689727618 l 15.37836170907749 -0.13200473969326526 a36.378928249605764,36.378928249605764 0 0,0 0.0,0.6245156848341824 l -15.37836170907749 -0.13200473969326337" fill="#ff8f0d" stroke="none" /><path d="M 120.98066250479742 100.90099992219065 l 23.64755568306549 1.0155277902005722 a44.669351205226405,44.669351205226405 0 0,0 -0.03947581706548248,0.765820305021078 l -23.626638276543435 -1.4213198885983809" fill="#fcff18" stroke="none" /><path d="M 120.82617615685814 102.69636545807757 l 29.33739193080728 3.798312740491399 a50.58225388601036,50.58225388601036 0 0,0 -0.11888150448910184,0.860167345727904 l -29.267865909762964 -4.301368394419388" fill="#b1ff20" stroke="none" /><path d="M 120.77682067341334 103.0534771498775 l 10.25179770922182 1.5066612232126682 a31.361919914395134,31.361919914395134 0 0,0 -0.08285297716808546,0.531975548134616 l -10.224423239915467 -1.6824249532787348" fill="#ff4506" stroke="none" /><path d="M 120.592083275326 104.11899336999214 l 14.508164100829486 2.902039144998964 a35.795562063527825,35.795562063527825 0 0,0 -0.12569746137586083,0.6015078556767183 l -14.45620892862926 -3.150663451961092" fill="#ff870c" stroke="none" /><path d="M 120.51834098615036 104.47187691870673 l 61.555022958451104 13.415630756120176 a84.0,84.0 0 0,0 -0.3191565537693437,1.4062626642439322 l -61.315655543124095 -14.470327754303124" fill="#4dd2ff" stroke="none" /><line stroke="#e1ed5e" stroke-width="0.3" x1="174.33088141563837" x2="178.70328620479359" y1="141.23008692659167" y2="143.65538615756765" /><path d="M 175.20536237346943 141.71514677278685 a86.0,86.0 0 0,1 -30.301960400862466,31.631185727798858" fill="none" id="id29" stroke="none" /><text fill="#e1ed5e" style="font-size:6.75px; font-family:Arial;" text-anchor="middle"><textPath startOffset="22.145653131862474" xlink:href="#id29">May</textPath></text><path d="M 117.423217284605 111.72311816256416 l 12.27283928716354 8.25771399181857 a35.792309641811215,35.792309641811215 0 0,0 -0.3473733356230996,0.5068280780520099 l -12.12927621472512 -8.467176804940623" fill="#ff870c" stroke="none" /><path d="M 115.89218393027572 113.72728997021213 l 6.719674696019796 5.804294957978151 a29.879406961027257,29.879406961027257 0 0,0 -0.3386175367715862,0.38528459768218865 l -6.619046095289624 -5.918791833471632" fill="#ff2e04" stroke="none" /><path d="M 115.16444852881244 114.52719865689866 l 6.414102250704755 6.144564863312297 a29.88236370804235,29.88236370804235 0 0,0 -0.3580379581788364,0.36737848651405336 l -6.307677491375112 -6.253766041894088" fill="#ff2e04" stroke="none" /><path d="M 112.45986205192187 116.90419585922612 l 14.236985314283444 19.31520487102438 a44.9951847262897,44.9951847262897 0 0,0 -0.6256880181813234,0.45294987347921656 l -13.903316285728152 -19.556755515876677" fill="#f8ff18" stroke="none" /><path d="M 111.8722381534696 117.32195027204791 l 5.851202752929289 8.537079681836635 a31.34979725163325,31.34979725163325 0 0,0 -0.4465162250176128,0.3004360435778266 l -5.703790239814673 -8.636265399471585" fill="#ff4506" stroke="none" /><line stroke="#e1ed5e" stroke-width="0.3" x1="143.1302829299769" x2="145.66735839644613" y1="173.24464959558577" y2="177.55315839532614" /><path d="M 143.63769802327073 174.10635135553383 a86.0,86.0 0 0,1 -40.68552437913181,11.842963189579606" fill="none" id="id30" stroke="none" /><text fill="#e1ed5e" style="font-size:6.75px; font-family:Arial;" text-anchor="middle"><textPath startOffset="21.407464694133747" xlink:href="#id30">June</textPath></text><path d="M 110.34350942703117 118.27599006163325 l 10.930996995017246 19.314024302293152 a43.192751745888714,43.192751745888714 0 0,0 -0.6484174294010674,0.359666217724931 l -10.597835377460084 -19.49882343545123" fill="#ffee16" stroke="none" /><line stroke="#e1ed5e" stroke-width="0.3" x1="101.45913802915013" x2="101.54496967792366" y1="184.9874750549273" y2="189.98673829345242" /><path d="M 101.47630435890484 185.9873277026323 a86.0,86.0 0 0,1 -42.54439059252881,-10.42667462771756" fill="none" id="id31" stroke="none" /><text fill="#e1ed5e" style="font-size:6.75px; font-family:Arial;" text-anchor="middle"><textPath startOffset="22.145653131862474" xlink:href="#id31">July</textPath></text><path d="M 99.27912038922189 120.98762331915562 l -0.5076322490067605 14.77915905446396 a35.78787452128857,35.78787452128857 0 0,0 -0.6138033564484635,-0.02635935715919349 l 0.7612613660560628 -14.768267128878938" fill="#ff870c" stroke="none" /><path d="M 98.55909050195518 120.95050786540614 l -0.4064629110346923 5.9098815200976 a26.923842644739807,26.923842644739807 0 0,0 -0.46082208696724736,-0.03567054397383152 l 0.5078539927771757 -5.902033209128715" fill="#ff0000" stroke="none" /><line stroke="#e1ed5e" stroke-width="0.3" x1="58.13341422392154" x2="55.67067388415222" y1="173.97424548756322" y2="178.32567169271397" /><path d="M 57.64086615596768 174.84453072859336 a86.0,86.0 0 0,1 -31.369924170532247,-30.572349798747897" fill="none" id="id32" stroke="none" /><text fill="#e1ed5e" style="font-size:6.75px; font-family:Arial;" text-anchor="middle"><textPath startOffset="22.145653131862474" xlink:href="#id32">August</textPath></text><line stroke="#e1ed5e" stroke-width="0.3" x1="26.387840678322732" x2="22.057713659400548" y1="142.50000000000003" y2="145.00000000000006" /><path d="M 25.521815274538298 143.00000000000003 a86.0,86.0 0 0,1 -11.493303480769221,-40.785679425670985" fill="none" id="id33" stroke="none" /><text fill="#e1ed5e" style="font-size:6.75px; font-family:Arial;" text-anchor="middle"><textPath startOffset="21.40746469413373" xlink:href="#id33">September</textPath></text><line stroke="#e1ed5e" stroke-width="0.3" x1="15.003131293944662" x2="10.003315487706104" y1="100.72959589197737" y2="100.7725132973878" /><path d="M 14.003168132696942 100.73817937305945 a86.0,86.0 0 0,1 10.791469493833604,-42.45332614584628" fill="none" id="id34" stroke="none" /><text fill="#e1ed5e" style="font-size:6.75px; font-family:Arial;" text-anchor="middle"><textPath startOffset="22.145653131862435" xlink:href="#id34">October</textPath></text><line stroke="#e1ed5e" stroke-width="0.3" x1="26.387840678322718" x2="22.05771365940052" y1="57.49999999999999" y2="54.99999999999999" /><path d="M 25.521815274538284 56.99999999999999 a86.0,86.0 0 0,1 29.574782752854787,-30.34633250058573" fill="none" id="id35" stroke="none" /><text fill="#e1ed5e" style="font-size:6.75px; font-family:Arial;" text-anchor="middle"><textPath startOffset="21.40746469413373" xlink:href="#id35">November</textPath></text><line stroke="#e1ed5e" stroke-width="0.3" x1="56.869717070023135" x2="54.33264160355391" y1="26.7553504044142" y2="22.446841604673864" /><path d="M 56.362301976729285 25.89364864446614 a86.0,86.0 0 0,1 42.16139366436587,-11.88097634709845" fill="none" id="id36" stroke="none" /><text fill="#e1ed5e" style="font-size:6.75px; font-family:Arial;" text-anchor="middle"><textPath startOffset="22.145653131862474" xlink:href="#id36">December</textPath></text></svg>